<mxfile host="Electron" agent="Mozilla/5.0 (Windows NT 10.0; Win64; x64) AppleWebKit/537.36 (KHTML, like Gecko) draw.io/26.0.15 Chrome/132.0.6834.196 Electron/34.2.0 Safari/537.36" version="26.0.15">
  <diagram name="Page-1" id="GOh2vLQ1OWMwblA9ORjv">
    <mxGraphModel dx="1348" dy="560" grid="1" gridSize="10" guides="1" tooltips="1" connect="1" arrows="1" fold="1" page="1" pageScale="1" pageWidth="850" pageHeight="1100" math="0" shadow="0">
      <root>
        <mxCell id="0" />
        <mxCell id="1" parent="0" />
        <mxCell id="xI-s63wLPZlaSFHS93I1-6" style="edgeStyle=orthogonalEdgeStyle;rounded=0;orthogonalLoop=1;jettySize=auto;html=1;entryX=0;entryY=0.5;entryDx=0;entryDy=0;" edge="1" parent="1" source="xI-s63wLPZlaSFHS93I1-1" target="xI-s63wLPZlaSFHS93I1-3">
          <mxGeometry relative="1" as="geometry" />
        </mxCell>
        <mxCell id="xI-s63wLPZlaSFHS93I1-1" value="&lt;span style=&quot;white-space: pre;&quot;&gt;&#x9;&lt;span style=&quot;white-space: pre;&quot;&gt;&#x9;&lt;/span&gt;&lt;/span&gt;&lt;div&gt;&lt;br&gt;&lt;/div&gt;&lt;div&gt;&lt;br&gt;&lt;/div&gt;&lt;div&gt;&lt;br&gt;&lt;/div&gt;&lt;div&gt;&lt;br&gt;&lt;/div&gt;&lt;div&gt;&lt;br&gt;&lt;/div&gt;&lt;div&gt;&amp;nbsp;START&lt;/div&gt;" style="ellipse;shape=doubleEllipse;whiteSpace=wrap;html=1;aspect=fixed;fillColor=light-dark(#33FF33,var(--ge-dark-color, #121212));" vertex="1" parent="1">
          <mxGeometry x="60" y="100" width="30" height="30" as="geometry" />
        </mxCell>
        <mxCell id="xI-s63wLPZlaSFHS93I1-5" value="" style="edgeStyle=orthogonalEdgeStyle;rounded=0;orthogonalLoop=1;jettySize=auto;html=1;" edge="1" parent="1" source="xI-s63wLPZlaSFHS93I1-3" target="xI-s63wLPZlaSFHS93I1-13">
          <mxGeometry relative="1" as="geometry">
            <mxPoint x="240" y="230" as="targetPoint" />
          </mxGeometry>
        </mxCell>
        <mxCell id="xI-s63wLPZlaSFHS93I1-7" value="Submit&amp;nbsp;" style="edgeLabel;html=1;align=center;verticalAlign=middle;resizable=0;points=[];" vertex="1" connectable="0" parent="xI-s63wLPZlaSFHS93I1-5">
          <mxGeometry x="-0.1111" y="2" relative="1" as="geometry">
            <mxPoint as="offset" />
          </mxGeometry>
        </mxCell>
        <mxCell id="xI-s63wLPZlaSFHS93I1-3" value="Masukan Username dan Password" style="rounded=0;whiteSpace=wrap;html=1;" vertex="1" parent="1">
          <mxGeometry x="180" y="85" width="120" height="60" as="geometry" />
        </mxCell>
        <mxCell id="xI-s63wLPZlaSFHS93I1-11" style="edgeStyle=orthogonalEdgeStyle;rounded=0;orthogonalLoop=1;jettySize=auto;html=1;entryX=1;entryY=0.5;entryDx=0;entryDy=0;exitX=1;exitY=0.5;exitDx=0;exitDy=0;" edge="1" parent="1" source="xI-s63wLPZlaSFHS93I1-10" target="xI-s63wLPZlaSFHS93I1-3">
          <mxGeometry relative="1" as="geometry">
            <mxPoint x="310" y="280" as="sourcePoint" />
            <Array as="points">
              <mxPoint x="360" y="400" />
              <mxPoint x="360" y="115" />
            </Array>
          </mxGeometry>
        </mxCell>
        <mxCell id="xI-s63wLPZlaSFHS93I1-12" value="Data Salah" style="edgeLabel;html=1;align=center;verticalAlign=middle;resizable=0;points=[];" vertex="1" connectable="0" parent="xI-s63wLPZlaSFHS93I1-11">
          <mxGeometry x="0.0449" y="-1" relative="1" as="geometry">
            <mxPoint as="offset" />
          </mxGeometry>
        </mxCell>
        <mxCell id="xI-s63wLPZlaSFHS93I1-15" value="no" style="edgeLabel;html=1;align=center;verticalAlign=middle;resizable=0;points=[];" vertex="1" connectable="0" parent="xI-s63wLPZlaSFHS93I1-11">
          <mxGeometry x="-0.7535" relative="1" as="geometry">
            <mxPoint y="-10" as="offset" />
          </mxGeometry>
        </mxCell>
        <mxCell id="xI-s63wLPZlaSFHS93I1-17" style="edgeStyle=orthogonalEdgeStyle;rounded=0;orthogonalLoop=1;jettySize=auto;html=1;entryX=1;entryY=0.5;entryDx=0;entryDy=0;" edge="1" parent="1" source="xI-s63wLPZlaSFHS93I1-10" target="xI-s63wLPZlaSFHS93I1-16">
          <mxGeometry relative="1" as="geometry" />
        </mxCell>
        <mxCell id="xI-s63wLPZlaSFHS93I1-18" value="yes" style="edgeLabel;html=1;align=center;verticalAlign=middle;resizable=0;points=[];" vertex="1" connectable="0" parent="xI-s63wLPZlaSFHS93I1-17">
          <mxGeometry x="-0.2286" y="2" relative="1" as="geometry">
            <mxPoint x="2" y="-12" as="offset" />
          </mxGeometry>
        </mxCell>
        <mxCell id="xI-s63wLPZlaSFHS93I1-10" value="" style="rhombus;whiteSpace=wrap;html=1;" vertex="1" parent="1">
          <mxGeometry x="205" y="380" width="70" height="40" as="geometry" />
        </mxCell>
        <mxCell id="xI-s63wLPZlaSFHS93I1-14" style="edgeStyle=orthogonalEdgeStyle;rounded=0;orthogonalLoop=1;jettySize=auto;html=1;entryX=0.5;entryY=0;entryDx=0;entryDy=0;" edge="1" parent="1" source="xI-s63wLPZlaSFHS93I1-13" target="xI-s63wLPZlaSFHS93I1-10">
          <mxGeometry relative="1" as="geometry" />
        </mxCell>
        <mxCell id="xI-s63wLPZlaSFHS93I1-13" value="Validasi Data" style="rounded=0;whiteSpace=wrap;html=1;" vertex="1" parent="1">
          <mxGeometry x="180" y="250" width="120" height="60" as="geometry" />
        </mxCell>
        <mxCell id="xI-s63wLPZlaSFHS93I1-16" value="Berhasil Masuk" style="rounded=1;whiteSpace=wrap;html=1;" vertex="1" parent="1">
          <mxGeometry x="15" y="370" width="120" height="60" as="geometry" />
        </mxCell>
        <mxCell id="xI-s63wLPZlaSFHS93I1-19" value="Diagram Activity Login Admin" style="swimlane;whiteSpace=wrap;html=1;" vertex="1" parent="1">
          <mxGeometry x="-20" y="30" width="430" height="430" as="geometry" />
        </mxCell>
      </root>
    </mxGraphModel>
  </diagram>
</mxfile>
